<?xml version="1.0" encoding="UTF-8" standalone="no"?>
<svg xmlns="http://www.w3.org/2000/svg" width="500" height="500" viewBox="0 0 500 500">
  <circle cx="250" cy="250" r="240" fill="#0a1a2a" stroke="#888" stroke-width="5"/>
  <circle cx="250" cy="250" r="220" fill="none" stroke="url(#gold-gradient)" stroke-width="40"/>
  
  <!-- Gold gradient -->
  <defs>
    <linearGradient id="gold-gradient" x1="0%" y1="0%" x2="100%" y2="100%">
      <stop offset="0%" style="stop-color:#ffd700;stop-opacity:1" />
      <stop offset="50%" style="stop-color:#ffa500;stop-opacity:1" />
      <stop offset="100%" style="stop-color:#ffd700;stop-opacity:1" />
    </linearGradient>
  </defs>
  
  <!-- Year circles -->
  <circle cx="80" cy="250" r="30" fill="#0a1a2a" stroke="#888" stroke-width="3"/>
  <circle cx="420" cy="250" r="30" fill="#0a1a2a" stroke="#888" stroke-width="3"/>
  
  <!-- Year text -->
  <text x="80" y="258" font-family="Arial, sans-serif" font-size="24" fill="white" text-anchor="middle" font-weight="bold">20</text>
  <text x="420" y="258" font-family="Arial, sans-serif" font-size="24" fill="white" text-anchor="middle" font-weight="bold">25</text>
  
  <!-- Company name -->
  <text x="250" y="150" font-family="Impact, sans-serif" font-size="40" fill="#0a1a2a" text-anchor="middle" stroke="#000" stroke-width="1" font-weight="bold">MOTAZ</text>
  <text x="250" y="370" font-family="Impact, sans-serif" font-size="40" fill="#0a1a2a" text-anchor="middle" stroke="#000" stroke-width="1" font-weight="bold">LADDERLIFT</text>
  
  <!-- Lift illustration -->
  <g transform="translate(250, 250) scale(0.8)">
    <!-- Scissor lift base -->
    <rect x="-60" y="40" width="120" height="30" fill="#ffd700" stroke="#000" stroke-width="3"/>
    
    <!-- Scissor mechanism -->
    <path d="M-50,40 L50,0 M-50,0 L50,40" stroke="#888" stroke-width="8" fill="none"/>
    <path d="M-50,0 L50,-40 M-50,-40 L50,0" stroke="#888" stroke-width="8" fill="none"/>
    <path d="M-50,-40 L50,-80 M-50,-80 L50,-40" stroke="#888" stroke-width="8" fill="none"/>
    
    <!-- Platform -->
    <rect x="-60" y="-110" width="120" height="30" fill="#ffd700" stroke="#000" stroke-width="3"/>
    
    <!-- Wheels -->
    <circle cx="-40" cy="70" r="10" fill="#333" stroke="#000" stroke-width="2"/>
    <circle cx="40" cy="70" r="10" fill="#333" stroke="#000" stroke-width="2"/>
    
    <!-- Control box -->
    <rect x="30" y="20" width="15" height="20" fill="#ddd" stroke="#000" stroke-width="1"/>
  </g>
  
  <!-- City background -->
  <circle cx="250" cy="250" r="150" fill="#5a9bd5" opacity="0.2"/>
  <g opacity="0.2">
    <rect x="200" y="200" width="20" height="60" fill="#5a9bd5"/>
    <rect x="230" y="180" width="30" height="80" fill="#5a9bd5"/>
    <rect x="270" y="210" width="25" height="50" fill="#5a9bd5"/>
    <rect x="180" y="220" width="15" height="40" fill="#5a9bd5"/>
    <rect x="300" y="190" width="20" height="70" fill="#5a9bd5"/>
  </g>
</svg>
